<svg xmlns="http://www.w3.org/2000/svg" version="1.0" width="754" height="754" preserveAspectRatio="xMidYMid meet" style=""><rect id="backgroundrect" width="100%" height="100%" x="0" y="0" fill="none" stroke="none"/>
<metadata>
Created by potrace 1.15, written by Peter Selinger 2001-2017
</metadata>

<g class="currentLayer" style=""><title>Layer 1</title><g transform="translate(0,754) scale(0.10000000149011612,-0.10000000149011612) " fill="#ebeb1a" stroke="#e8e841" id="svg_1" class="" fill-opacity="1" stroke-opacity="1">
<path d="M915 6756 c-60 -28 -97 -66 -124 -126 -21 -45 -21 -49 -21 -2850 0 -2801 0 -2805 21 -2850 27 -60 64 -98 124 -126 l50 -24 2805 0 2805 0 50 24 c60 28 97 66 124 126 21 45 21 50 21 2850 l0 2805 -24 50 c-28 60 -66 97 -126 124 -45 21 -50 21 -2850 21 l-2805 0 -50 -24z m4390 -1443 c181 -49 338 -137 458 -257 120 -120 208 -276 249 -442 30 -124 30 -304 0 -428 -34 -137 -133 -329 -201 -390 -27 -24 -27 -48 0 -72 68 -61 167 -253 201 -390 30 -124 30 -304 0 -428 -26 -102 -81 -226 -141 -314 -123 -182 -339 -328 -563 -382 -81 -19 -120 -20 -1380 -20 -1096 0 -1307 2 -1366 15 -458 96 -834 507 -977 1070 -46 179 -59 291 -59 490 0 199 13 311 59 490 142 559 514 969 970 1070 49 11 309 13 1365 11 1303 -2 1305 -2 1385 -23z" id="svg_2" fill="#ebeb1a" fill-opacity="1" stroke="#e8e841" stroke-opacity="1"/>
<path d="M2615 4733 c-240 -96 -437 -401 -489 -754 -73 -497 125 -1005 454 -1167 l55 -27 283 -3 282 -3 0 986 0 985 -272 -1 c-226 0 -280 -3 -313 -16z" id="svg_3" fill="#ebeb1a" fill-opacity="1" stroke="#e8e841" stroke-opacity="1"/>
<path d="M3790 3765 l0 -985 708 2 707 3 49 25 c65 33 128 96 163 161 25 48 28 64 28 149 0 85 -3 101 -28 149 -35 65 -98 128 -163 161 l-49 25 -385 5 -385 5 -53 29 c-58 32 -105 94 -123 160 -17 63 -7 203 18 251 26 51 66 91 118 119 38 20 56 21 410 26 402 6 399 6 492 67 55 36 86 72 124 143 20 38 24 59 24 140 0 81 -4 102 -24 140 -37 70 -69 107 -124 143 -103 68 -86 67 -834 67 l-673 0 0 -985z" id="svg_4" fill="#ebeb1a" fill-opacity="1" stroke="#e8e841" stroke-opacity="1"/>
</g></g></svg>